<svg width="15" height="16" viewBox="0 0 15 16" fill="none" xmlns="http://www.w3.org/2000/svg">
<path d="M9.95833 6.41667V3.58333C9.95833 2.83189 9.65982 2.11122 9.12847 1.57986C8.59712 1.04851 7.87645 0.75 7.125 0.75C6.37355 0.75 5.65288 1.04851 5.12153 1.57986C4.59018 2.11122 4.29167 2.83189 4.29167 3.58333V6.41667M0.75 4.29167V12.0833C0.75 12.8348 1.04851 13.5554 1.57986 14.0868C2.11122 14.6182 2.83189 14.9167 3.58333 14.9167H10.6667C11.4181 14.9167 12.1388 14.6182 12.6701 14.0868C13.2015 13.5554 13.5 12.8348 13.5 12.0833V4.29167H0.75Z" stroke="black" stroke-width="1.5" stroke-linecap="round" stroke-linejoin="round"/>
</svg>
